<?xml version="1.0" standalone="no"?>
<!DOCTYPE svg PUBLIC "-//W3C//DTD SVG 20010904//EN"
 "http://www.w3.org/TR/2001/REC-SVG-20010904/DTD/svg10.dtd">
<svg version="1.0" xmlns="http://www.w3.org/2000/svg"
 width="260.000000pt" height="260.000000pt" viewBox="0 0 260.000000 260.000000"
 preserveAspectRatio="xMidYMid meet">
<metadata>
Created by potrace 1.11, written by Peter Selinger 2001-2013
</metadata>
<g transform="translate(0.000000,260.000000) scale(0.100000,-0.100000)"
fill="#000000" stroke="none">
<path d="M1110 2585 c-335 -53 -575 -227 -658 -480 -33 -100 -44 -260 -23
-333 5 -18 10 -36 11 -40 16 -113 132 -269 267 -360 120 -81 297 -160 518
-229 224 -70 270 -86 333 -116 80 -38 163 -117 179 -171 15 -48 9 -129 -12
-180 -17 -39 -126 -156 -146 -156 -5 0 -29 -9 -53 -19 -101 -46 -276 -52 -388
-12 -139 48 -307 149 -418 250 -65 60 -88 63 -152 22 -75 -48 -238 -213 -238
-242 0 -37 35 -87 115 -165 174 -170 390 -282 644 -334 118 -24 350 -20 476 8
431 97 694 383 704 766 3 103 -13 175 -59 271 -101 209 -320 350 -765 490
-354 111 -457 165 -501 262 -50 112 35 253 182 302 85 29 221 38 295 21 92
-21 265 -109 321 -163 40 -38 106 -85 129 -90 35 -9 85 27 187 132 138 142
141 164 29 273 -130 127 -379 254 -557 284 -14 3 -32 7 -40 10 -33 13 -298 12
-380 -1z"/>
</g>
</svg>
