<svg width="40" height="37" viewBox="0 0 40 37" fill="none" xmlns="http://www.w3.org/2000/svg">
<path fill-rule="evenodd" clip-rule="evenodd" d="M2 3.60001H38V36H2V3.60001Z" stroke="#FD6A46" stroke-width="1.5" stroke-linecap="round" stroke-linejoin="round"/>
<path d="M0.888889 13.8889V13.1389C0.474675 13.1389 0.138889 13.4747 0.138889 13.8889H0.888889ZM0.888889 16.1111H0.138889C0.138889 16.5253 0.474675 16.8611 0.888889 16.8611L0.888889 16.1111ZM39.1111 16.1111V16.8611C39.5253 16.8611 39.8611 16.5253 39.8611 16.1111H39.1111ZM39.1111 13.8889H39.8611C39.8611 13.4747 39.5253 13.1389 39.1111 13.1389V13.8889ZM0.888889 14.6389H2V13.1389H0.888889V14.6389ZM1.63889 16.1111V13.8889H0.138889V16.1111H1.63889ZM2 15.3611H0.888889V16.8611H2V15.3611ZM38 15.3611H2V16.8611H38V15.3611ZM39.1111 15.3611H38V16.8611H39.1111V15.3611ZM38.3611 13.8889V16.1111H39.8611V13.8889H38.3611ZM38 14.6389H39.1111V13.1389H38V14.6389ZM2 14.6389H38V13.1389H2V14.6389Z" fill="#FD6A46"/>
</svg>
