<svg fill="none" height="38" viewBox="0 0 42 38" width="42" xmlns="http://www.w3.org/2000/svg"><g style="fill-rule:evenodd;clip-rule:evenodd;stroke:#fc615a;stroke-width:1.5;stroke-linecap:round;stroke-linejoin:round"><path d="m16.3333 32.7333c8.4684 0 15.3334-6.8649 15.3334-15.3333 0-8.46835-6.865-15.33332-15.3334-15.33332-8.46833 0-15.3333 6.86497-15.3333 15.33332 0 8.4684 6.86497 15.3333 15.3333 15.3333z"/><path d="m16.3333 26.7333c5.1547 0 9.3334-4.1786 9.3334-9.3333 0-5.1546-4.1787-9.33332-9.3334-9.33332-5.1546 0-9.3333 4.17872-9.3333 9.33332 0 5.1547 4.1787 9.3333 9.3333 9.3333z"/><path d="m16.3333 20.0667c1.4728 0 2.6667-1.1939 2.6667-2.6667s-1.1939-2.6667-2.6667-2.6667-2.6667 1.1939-2.6667 2.6667 1.1939 2.6667 2.6667 2.6667z"/></g><path d="m8.30975 30.4526c.21311-.3552.09793-.8159-.25725-1.029-.35519-.2131-.81588-.098-1.02899.2572zm-5.28624 5.8949c-.21311.3552-.09794.8159.25724 1.029.35519.2131.81588.0979 1.029-.2573zm22.61959-6.6667c-.2131-.3552-.6738-.4703-1.029-.2572s-.4704.6738-.2573 1.029zm2.7137 7.4384c.2132.3552.6738.4704 1.029.2573s.4704-.6738.2573-1.029zm-21.33329-7.4384-4 6.6667 1.28624.7717 4-6.6666zm17.33329.7718 4 6.6666 1.2863-.7717-4-6.6667z" fill="#fc615a"/><path d="m15.9582 16.8172c-.3587.2072-.4814.666-.2742 1.0246.2072.3587.6659.4815 1.0245.2743zm20.1085-10.75054.3752.64942c.1701-.09828.2949-.25938.3474-.44868zm2.056-4.59926c.1108-.39911-.1228-.812514-.5219-.923376s-.8125.122803-.9234.521906zm-1.8246 3.88585c-.394-.12779-.817.08802-.9448.48203s.088.81701.482.9448zm4.4706 3.02683c.394.12779.817-.08803.9448-.48204.1277-.39401-.0881-.81701-.4821-.94479zm-24.0602 9.73602 19.7334-11.40002-.7504-1.29884-19.7333 11.39996zm20.0808-11.8487 1.3334-4.8-1.4453-.40147-1.3333 4.8zm-.954.51268 4.9334 1.6.4627-1.42683-4.9333-1.6z" fill="#fc615a"/></svg>