<svg width="42" height="42" xmlns="http://www.w3.org/2000/svg"><g transform="translate(1 1)" stroke-width="1.5" fill-rule="evenodd" stroke-linecap="round" stroke-linejoin="round"><path d="M21.668 32H0s0-4.034 4.725-5.378c4.725-1.345 6.075-2.958 6.075-4.034v-1.344a41.599 41.599 0 0 1-8.1-1.345c2.228-2.218 4.05-2.89 4.05-12.1C6.75 3.764 9.248 0 13.5 0c4.253 0 9.45-.067 9.45 7.798 0 9.21 1.823 9.883 4.05 12.101a41.802 41.802 0 0 1-8.1 1.345v1.344c0 .941.54 2.084 3.983 3.362"/><circle cx="30.5" cy="30.5" r="9.5"/><path d="M27 31h8m-4 4v-8"/></g></svg>