<svg height="40" viewBox="0 0 128 40" width="128" xmlns="http://www.w3.org/2000/svg"><g fill="none"><path d="m14.753 7.508a.678.678 0 0 1 -.375-.111 3.696 3.696 0 0 1 -.39-.3l-.032-.017a8.097 8.097 0 0 0 -.767-.718 7.82 7.82 0 0 0 -1.047-.735 7.295 7.295 0 0 0 -1.244-.582 3.964 3.964 0 0 0 -1.352-.24c-.584 0-1.1.072-1.549.215a3.407 3.407 0 0 0 -1.126.581 2.458 2.458 0 0 0 -.688.864c-.156.33-.234.684-.234 1.06 0 .41.117.77.351 1.077.235.308.553.582.954.821.402.24.863.46 1.384.659.522.2 1.07.396 1.643.59.656.216 1.308.45 1.954.701.647.25 1.265.533 1.854.847.589.313 1.139.66 1.65 1.043.51.382.951.82 1.321 1.317a6.16 6.16 0 0 1 .876 1.658c.214.61.32 1.297.32 2.061 0 1.243-.229 2.366-.688 3.37a7.605 7.605 0 0 1 -1.9 2.573 8.505 8.505 0 0 1 -2.846 1.642c-1.09.382-2.26.573-3.511.573-.803 0-1.6-.103-2.393-.308a10.97 10.97 0 0 1 -2.283-.872c-.73-.376-1.42-.83-2.072-1.36a10.843 10.843 0 0 1 -1.744-1.787v.017l-.031-.068c-.23-.285-.344-.547-.344-.787 0-.125.03-.245.093-.359s.157-.24.282-.376l.516-.565c.156-.148.323-.313.5-.496a7.047 7.047 0 0 1 1.025-.872c.151-.102.274-.154.367-.154.146 0 .282.052.407.154.125.103.23.2.313.29l.062.07h-.015c.365.376.774.735 1.227 1.077.454.342.92.647 1.4.915s.957.479 1.431.632c.474.154.92.231 1.337.231.574 0 1.11-.08 1.611-.24.5-.159.933-.384 1.298-.675.365-.29.652-.64.86-1.051.209-.41.313-.867.313-1.369 0-.501-.136-.932-.407-1.29a3.786 3.786 0 0 0 -1.063-.941 7.833 7.833 0 0 0 -1.478-.693 43.263 43.263 0 0 0 -1.65-.547c-1.272-.422-2.385-.878-3.339-1.368s-1.749-1.04-2.385-1.65a6.1 6.1 0 0 1 -1.43-2.053c-.319-.758-.478-1.61-.478-2.557 0-1.06.196-2.026.587-2.898a6.364 6.364 0 0 1 1.665-2.24c.72-.623 1.585-1.107 2.597-1.455 1.011-.347 2.142-.522 3.393-.522.949 0 1.913.162 2.893.487s1.887.773 2.721 1.343a10.27 10.27 0 0 1 1.486 1.24c.22.222.399.439.54.65.14.21.21.39.21.538 0 .137-.03.277-.093.42-.063.142-.14.27-.235.384l-.469.547v-.017l-.485.565a6.304 6.304 0 0 1 -.954.906c-.135.103-.25.154-.344.154z" fill="#fd999f"/><path d="m21.214.892h4.997l4.267 11.947 4.281-11.947 4.267 11.947 4.252-11.947h5.012l-9.264 25.804-4.324-12.558-4.224 12.558z" fill="#fc586e"/><path d="m53.366 1.488a.84.84 0 0 1 .172-.53c.115-.148.287-.222.517-.222h3.112c.177 0 .344.068.5.205a.69.69 0 0 1 .235.547v23.891c0 .502-.245.753-.735.753h-3.112c-.46 0-.689-.25-.689-.753z" fill="#fd6a46"/><path d="m71.82 25.636a9.753 9.753 0 0 1 -.312-.727 36.985 36.985 0 0 1 -.282-.76l-8.21-22.49a.65.65 0 0 0 -.024-.145.97.97 0 0 1 -.023-.231c0-.365.214-.547.641-.547h3.347c.396 0 .667.216.813.65.23.718.508 1.559.837 2.522a1375.539 1375.539 0 0 0 3.33 9.654c.37 1.06.715 2.055 1.033 2.984.318.93.586 1.725.805 2.386.23-.661.5-1.456.814-2.386a1342.043 1342.043 0 0 1 2.127-6.268c.385-1.128.76-2.231 1.126-3.309.364-1.077.711-2.098 1.04-3.061.328-.963.612-1.804.852-2.523.146-.433.427-.65.844-.65h3.285c.469 0 .703.189.703.565 0 .08-.007.154-.023.222a.78.78 0 0 0 -.024.137l-8.194 22.49c-.084.227-.167.458-.25.692a6.917 6.917 0 0 1 -.282.675c-.146.297-.339.473-.579.53s-.526.086-.86.086h-1.798c-.24 0-.41-.051-.509-.154a1.095 1.095 0 0 1 -.226-.342z" fill="#feb214"/><path d="m89.633 1.556c0-.547.23-.82.689-.82h15.076c.27 0 .464.082.578.248.115.165.172.373.172.624v3.01a.841.841 0 0 1 -.195.547c-.13.16-.326.24-.587.24h-11.119v5.198h8.57c.209-.022.376.026.5.146.126.12.188.322.188.607v3.095a.978.978 0 0 1 -.156.548c-.104.16-.271.239-.5.239h-8.602v6.225h11.526c.292 0 .485.069.579.205.093.137.14.348.14.633v3.113c0 .479-.229.718-.688.718h-15.482a.729.729 0 0 1 -.485-.171c-.136-.114-.204-.296-.204-.547z" fill="#76e2a1"/><path d="m112.216 1.488c0-.205.063-.382.188-.53s.302-.222.532-.222h3.112a.7.7 0 0 1 .493.196c.14.131.21.317.21.556v19.958h9.79c.188 0 .35.071.486.214.135.142.203.333.203.573v3.13a.829.829 0 0 1 -.188.538.612.612 0 0 1 -.5.231h-13.638c-.458 0-.688-.25-.688-.753z" fill="#7cbaf2"/><path d="m5.261 33.74c-.275-.415-.677-.622-1.205-.622a1.76 1.76 0 0 0 -.484.067 1.32 1.32 0 0 0 -.426.207 1.028 1.028 0 0 0 -.304.36 1.11 1.11 0 0 0 -.114.519c0 .288.08.511.237.67.159.16.355.29.59.392.234.102.491.194.77.275.278.081.535.19.77.324.234.135.43.314.589.536.158.222.237.525.237.91 0 .288-.06.548-.18.779s-.279.425-.475.58a2.213 2.213 0 0 1 -.66.361 2.237 2.237 0 0 1 -.734.126c-.382 0-.744-.073-1.087-.22a2.078 2.078 0 0 1 -.875-.726l.572-.423c.134.234.322.422.563.563.24.141.524.212.853.212.158 0 .317-.026.475-.077.158-.05.3-.126.427-.225.126-.1.23-.22.312-.365a.983.983 0 0 0 .123-.495c0-.222-.045-.407-.136-.554a1.19 1.19 0 0 0 -.361-.37c-.15-.098-.32-.181-.51-.247s-.387-.132-.59-.198a6.319 6.319 0 0 1 -.589-.225c-.19-.084-.36-.191-.51-.32a1.43 1.43 0 0 1 -.36-.486c-.092-.196-.137-.44-.137-.734 0-.307.057-.574.171-.802.115-.228.267-.417.458-.567.19-.15.406-.262.646-.334a2.56 2.56 0 0 1 .74-.108c.351 0 .67.057.958.171.287.114.554.316.8.604l-.554.441zm16.359 4.313a2.455 2.455 0 0 1 -.924.833 2.917 2.917 0 0 1 -1.381.338c-.463 0-.893-.084-1.289-.252a3.135 3.135 0 0 1 -1.029-.698 3.21 3.21 0 0 1 -.682-1.058 3.564 3.564 0 0 1 -.246-1.342c0-.487.082-.934.246-1.342a3.21 3.21 0 0 1 .682-1.059c.29-.297.633-.53 1.03-.698a3.263 3.263 0 0 1 1.288-.252c.387 0 .774.078 1.161.234.387.157.719.415.994.775l-.554.423a1.534 1.534 0 0 0 -.264-.306 1.92 1.92 0 0 0 -.382-.27 2.341 2.341 0 0 0 -.462-.19 1.747 1.747 0 0 0 -.493-.071c-.399 0-.756.075-1.073.225a2.44 2.44 0 0 0 -.805.603 2.67 2.67 0 0 0 -.506.878 3.137 3.137 0 0 0 -.176 1.05c0 .366.059.716.176 1.049s.286.626.506.878.488.453.805.603.674.226 1.073.226c.164 0 .327-.015.488-.045.162-.03.32-.081.475-.154a1.79 1.79 0 0 0 .44-.292 2.16 2.16 0 0 0 .383-.464zm10.35-5.368h.633v2.765h3.397v-2.765h.633v6.377h-.633v-3.017h-3.396v3.017h-.633v-6.377zm16.27 5.783h3.335v.594h-3.968v-6.377h3.862v.595h-3.228v2.17h3.017v.595h-3.017v2.423zm14.415 0h1.232c.475 0 .887-.074 1.236-.221.348-.147.639-.342.87-.586a2.34 2.34 0 0 0 .515-.828c.111-.31.167-.63.167-.96s-.056-.65-.167-.959a2.34 2.34 0 0 0 -.515-.828 2.553 2.553 0 0 0 -.87-.586c-.35-.147-.761-.22-1.236-.22h-1.232zm-.633-5.783h2.067c.387 0 .775.066 1.165.199.39.132.742.331 1.056.598.314.268.568.6.761 1 .194.4.29.863.29 1.392 0 .534-.096 1-.29 1.396a3.04 3.04 0 0 1 -.76.995 3.194 3.194 0 0 1 -1.057.599c-.39.132-.778.198-1.165.198h-2.067zm20.343 4c0 .263-.03.544-.092.841a2.292 2.292 0 0 1 -.348.824c-.17.253-.403.461-.7.626-.295.166-.675.248-1.138.248-.47 0-.85-.082-1.144-.248a2.008 2.008 0 0 1 -.695-.626 2.292 2.292 0 0 1 -.347-.824 4.158 4.158 0 0 1 -.093-.842v-3.999h.634v3.927c0 .306.029.57.088.788.058.22.136.404.233.554s.205.269.325.356.24.155.36.203c.121.048.237.08.348.094.112.015.209.023.29.023.077 0 .172-.008.287-.023.114-.015.231-.046.351-.094s.24-.116.361-.203c.12-.087.229-.206.326-.356.096-.15.174-.335.233-.554a3.08 3.08 0 0 0 .088-.788v-3.927h.633zm11.503 1.783h2.903v.594h-3.537v-6.377h.634zm13.684 0h3.334v.594h-3.968v-6.377h3.862v.595h-3.228v2.17h3.017v.595h-3.017zm14.502-2.964h1.126c.282 0 .52-.03.717-.09s.354-.14.47-.238a.87.87 0 0 0 .256-.352c.053-.135.08-.28.08-.436 0-.15-.027-.293-.08-.428a.904.904 0 0 0 -.255-.356 1.23 1.23 0 0 0 -.47-.239 2.6 2.6 0 0 0 -.718-.085h-1.126zm0 3.558h-.633v-6.377h1.918c.633 0 1.133.141 1.5.424.366.282.55.708.55 1.279 0 .444-.137.818-.41 1.12-.272.304-.667.48-1.183.528l1.795 3.026h-.775l-1.706-2.963h-1.056z" fill="#10253f"/></g></svg>