<svg width="42" height="42" viewBox="0 0 42 42" fill="none" xmlns="http://www.w3.org/2000/svg">
<path d="M22.6675 33H1C1 33 1 28.9664 5.725 27.6219C10.45 26.2773 11.8 24.6639 11.8 23.5882V22.2437C9.06197 22.0637 6.34865 21.6133 3.7 20.8992C5.9275 18.6807 7.75 18.0084 7.75 8.79833C7.75 4.76472 10.2475 1.00002 14.5 1.00002C18.7525 1.00002 23.95 0.932792 23.95 8.79833C23.95 18.0084 25.7725 18.6807 28 20.8992C25.3511 21.612 22.6379 22.0624 19.9 22.2437V23.5882C19.9 24.5294 20.44 25.6723 23.8825 26.9496" stroke="#FC586E" stroke-width="1.5" stroke-linecap="round" stroke-linejoin="round"/>
<path fill-rule="evenodd" clip-rule="evenodd" d="M31.5 41C36.7467 41 41 36.7467 41 31.5C41 26.2533 36.7467 22 31.5 22C26.2533 22 22 26.2533 22 31.5C22 36.7467 26.2533 41 31.5 41Z" stroke="#FC586E" stroke-width="1.5" stroke-linecap="round" stroke-linejoin="round"/>
<path d="M28 31.25C27.5858 31.25 27.25 31.5858 27.25 32C27.25 32.4142 27.5858 32.75 28 32.75V31.25ZM36 32.75C36.4142 32.75 36.75 32.4142 36.75 32C36.75 31.5858 36.4142 31.25 36 31.25V32.75ZM31.25 36C31.25 36.4142 31.5858 36.75 32 36.75C32.4142 36.75 32.75 36.4142 32.75 36H31.25ZM32.75 28C32.75 27.5858 32.4142 27.25 32 27.25C31.5858 27.25 31.25 27.5858 31.25 28H32.75ZM28 32.75H36V31.25H28V32.75ZM32.75 36V28H31.25V36H32.75Z" fill="#FC586E"/>
</svg>
